HIERARCHY
ROOT Hips
{
	OFFSET 0.000000 0.000000 0.000000
	CHANNELS 6 Xposition Yposition Zposition Zrotation Yrotation Xrotation 
	JOINT LHipJoint
	{
		OFFSET 0.000000 0.000000 0.000000
		CHANNELS 3 Zrotation Yrotation Xrotation
		JOINT LeftUpLeg
		{
			OFFSET 1.363060 -1.794630 0.839290
			CHANNELS 3 Zrotation Yrotation Xrotation
			JOINT LeftLeg
			{
				OFFSET 2.448110 -6.726130 0.000000
				CHANNELS 3 Zrotation Yrotation Xrotation
				JOINT LeftFoot
				{
					OFFSET 2.562200 -7.039590 0.000000
					CHANNELS 3 Zrotation Yrotation Xrotation
					JOINT LeftToeBase
					{
						OFFSET 0.157640 -0.433110 2.322550
						CHANNELS 3 Zrotation Yrotation Xrotation
						End Site
						{
							OFFSET 0.000000 0.000000 0.000000
						}
					}
				}
			}
		}
	}
	JOINT RHipJoint
	{
		OFFSET 0.000000 0.000000 0.000000
		CHANNELS 3 Zrotation Yrotation Xrotation
		JOINT RightUpLeg
		{
			OFFSET -1.305520 -1.794630 0.839290
			CHANNELS 3 Zrotation Yrotation Xrotation
			JOINT RightLeg
			{
				OFFSET -2.542530 -6.985550 0.000000
				CHANNELS 3 Zrotation Yrotation Xrotation
				JOINT RightFoot
				{
					OFFSET -2.568260 -7.056230 0.000000
					CHANNELS 3 Zrotation Yrotation Xrotation
					JOINT RightToeBase
					{
						OFFSET -0.164730 -0.452590 2.363150
						CHANNELS 3 Zrotation Yrotation Xrotation
						End Site
						{
							OFFSET 0.000000 0.000000 0.000000
						}
					}
				}
			}
		}
	}
	JOINT LowerBack
	{
		OFFSET 0.000000 0.000000 0.000000
		CHANNELS 3 Zrotation Yrotation Xrotation
		JOINT Spine
		{
			OFFSET 0.028270 2.035590 -0.193380
			CHANNELS 3 Zrotation Yrotation Xrotation
			JOINT Spine1
			{
				OFFSET 0.056720 2.048850 -0.042750
				CHANNELS 3 Zrotation Yrotation Xrotation
				JOINT Neck
				{
					OFFSET 0.000000 0.000000 0.000000
					CHANNELS 3 Zrotation Yrotation Xrotation
					JOINT Neck1
					{
						OFFSET -0.054170 1.746240 0.172020
						CHANNELS 3 Zrotation Yrotation Xrotation
						JOINT Head
						{
							OFFSET 0.104070 1.761360 -0.123970
							CHANNELS 3 Zrotation Yrotation Xrotation
							End Site
							{
								OFFSET 0.000000 0.000000 0.000000
							}
						}
					}
				}
				JOINT LeftShoulder
				{
					OFFSET 0.000000 0.000000 0.000000
					CHANNELS 3 Zrotation Yrotation Xrotation
					JOINT LeftArm
					{
						OFFSET 3.362410 1.200890 -0.311210
						CHANNELS 3 Zrotation Yrotation Xrotation
						JOINT LeftForeArm
						{
							OFFSET 4.983000 -0.000000 -0.000000
							CHANNELS 3 Zrotation Yrotation Xrotation
							JOINT LeftHand
							{
								OFFSET 3.483560 -0.000000 -0.000000
								CHANNELS 3 Zrotation Yrotation Xrotation
								JOINT LeftFingerBase
								{
									OFFSET 0.000000 0.000000 0.000000
									CHANNELS 3 Zrotation Yrotation Xrotation
									JOINT LeftHandIndex1
									{
										OFFSET 0.715260 -0.000000 -0.000000
										CHANNELS 3 Zrotation Yrotation Xrotation
										End Site
										{
											OFFSET 0.000000 0.000000 0.000000
										}
									}
								}
								JOINT LThumb
								{
									OFFSET 0.000000 0.000000 0.000000
									CHANNELS 3 Zrotation Yrotation Xrotation
									End Site
									{
										OFFSET 0.000000 0.000000 0.000000
									}
								}
							}
						}
					}
				}
				JOINT RightShoulder
				{
					OFFSET 0.000000 0.000000 0.000000
					CHANNELS 3 Zrotation Yrotation Xrotation
					JOINT RightArm
					{
						OFFSET -3.136600 1.374050 -0.404650
						CHANNELS 3 Zrotation Yrotation Xrotation
						JOINT RightForeArm
						{
							OFFSET -5.241900 -0.000000 -0.000000
							CHANNELS 3 Zrotation Yrotation Xrotation
							JOINT RightHand
							{
								OFFSET -3.444170 -0.000000 -0.000000
								CHANNELS 3 Zrotation Yrotation Xrotation
								JOINT RightFingerBase
								{
									OFFSET 0.000000 0.000000 0.000000
									CHANNELS 3 Zrotation Yrotation Xrotation
									JOINT RightHandIndex1
									{
										OFFSET -0.622530 -0.000000 -0.000000
										CHANNELS 3 Zrotation Yrotation Xrotation
										End Site
										{
											OFFSET 0.000000 0.000000 0.000000
										}
									}
								}
								JOINT RThumb
								{
									OFFSET 0.000000 0.000000 0.000000
									CHANNELS 3 Zrotation Yrotation Xrotation
									End Site
									{
										OFFSET 0.000000 0.000000 0.000000
									}
								}
							}
						}
					}
				}
			}
		}
	}
}
MOTION
Frames: 9
Frame Time: 0.016667
-2.110532 16.554945 23.776121 -6.593697 11.118961 -10.699952 0.947663 -2.473271 3.150562 -12.910509 -10.520933 8.217465 -0.240324 -27.017083 -29.368686 3.966442 -21.914459 22.991701 0.000000 0.000000 0.000000 -6.789736 22.653780 -53.475277 14.386464 -18.475025 10.442056 43.387169 -32.586548 55.331953 32.401196 21.090130 -62.784771 0.000000 0.000000 0.000000 -1.528714 -8.859062 39.512160 7.654262 -2.695283 -29.593692 9.476975 -8.074516 -3.827296 9.773538 5.713697 13.253220 30.820756 12.119029 3.486953 0.000000 0.000000 0.000000 -12.387296 -14.891235 -38.568449 -9.673849 -24.940524 -4.447019 -14.304989 -7.122396 67.231055 24.713679 48.197350 17.464728 -161.311891 87.283916 180.000000 0.000000 0.000000 0.000000 0.000000 0.000000 0.000000 13.969236 -14.159041 11.841413 28.596887 2.381281 26.605310 -10.814340 87.959087 1.250829 -16.622024 32.659901 0.064789 -18.428484 31.878901 0.000000 0.000000 0.000000 0.000000 0.000000 0.000000 0.000000 
-2.121009 16.583741 23.966114 -6.957923 9.808369 -9.492709 1.776284 -2.640357 2.429991 -13.391089 -10.405068 8.555740 0.044276 -26.403368 -29.143418 4.196213 -22.368169 20.919460 0.000000 0.000000 0.000000 -6.539237 23.298015 -54.455455 14.937527 -18.721527 10.261448 42.393619 -33.291115 56.065298 31.701956 20.740123 -61.987594 0.000000 0.000000 0.000000 -2.813803 -10.084753 42.024020 5.112460 -5.017046 -28.117927 12.046171 -6.553123 -0.333137 5.402025 1.789274 -0.556148 24.758004 3.294222 4.725832 0.000000 0.000000 0.000000 -11.173119 -10.627610 -14.674247 23.775914 -30.579215 45.226484 -51.100092 -27.212389 -107.717862 173.741040 15.324237 -132.804668 -155.886438 -31.846333 -0.000000 0.000000 0.000000 0.000000 0.000000 0.000000 0.000000 18.577949 -14.274471 7.255493 24.593473 5.730898 25.936738 -10.566600 87.435206 1.145919 -16.606321 32.554489 0.002956 -18.450329 31.760843 0.000000 0.000000 0.000000 0.000000 0.000000 0.000000 0.000000 
-2.129202 16.613578 24.152042 -6.920425 9.552939 -9.534673 2.125972 -2.941935 2.242707 -13.997221 -10.398524 9.277311 0.065000 -25.966491 -28.662090 4.313430 -22.785637 19.483829 0.000000 0.000000 0.000000 -6.532419 23.420311 -54.366808 15.206410 -19.169763 10.587169 41.312553 -33.990973 56.645447 31.028502 20.296127 -61.079406 0.000000 0.000000 0.000000 -3.189862 -10.119705 41.754913 5.689912 -5.314354 -26.567412 13.451177 -7.459658 -1.673192 4.105577 2.047820 -0.571279 24.380643 3.945830 5.199987 0.000000 0.000000 0.000000 -6.773897 -12.839809 -14.543579 6.588863 -23.528525 29.448345 -74.312041 -59.774487 -135.782900 56.847757 29.035407 -1.946925 -87.591773 57.487861 -0.000006 0.000000 0.000000 0.000000 0.000000 0.000000 0.000000 17.202927 -13.634766 7.474141 23.939533 5.940515 26.089864 -10.603293 87.487643 1.209089 -16.552800 32.569317 0.044074 -18.363899 31.790207 0.000000 0.000000 0.000000 0.000000 0.000000 0.000000 0.000000 
-2.134609 16.644107 24.333409 -6.513126 9.014571 -9.382249 2.308277 -3.198584 2.083130 -14.760575 -10.442682 9.989146 0.145009 -25.393574 -28.204767 4.460362 -23.171378 18.034648 0.000000 0.000000 0.000000 -6.676234 23.766606 -54.409860 15.450895 -19.446448 10.984593 40.103832 -34.673195 57.293676 30.338792 19.814108 -60.138020 0.000000 0.000000 0.000000 -2.870196 -10.756716 41.947703 5.198067 -5.760598 -27.545151 11.927246 -7.597177 -3.507881 3.489419 2.405320 0.350475 24.465471 4.763688 4.732041 0.000000 0.000000 0.000000 -7.554388 -14.520002 -18.928858 5.941059 -23.580046 23.988273 -84.334915 -47.750669 -122.435550 37.026340 30.119192 -15.197238 -46.977446 53.589545 0.000000 0.000000 0.000000 0.000000 0.000000 0.000000 0.000000 17.328363 -13.331754 9.144766 24.615878 5.088873 27.104066 -10.593769 87.572220 1.285949 -16.483120 32.575498 0.094529 -18.252877 31.814511 0.000000 0.000000 0.000000 0.000000 0.000000 0.000000 0.000000 
-2.136633 16.674896 24.510171 -7.169613 10.394833 -10.205160 2.927424 -4.260851 2.039451 -15.081021 -10.899474 11.218131 0.192874 -24.828048 -27.247368 4.613980 -23.754869 16.415504 0.000000 0.000000 0.000000 -6.680468 22.888000 -53.750554 15.529493 -20.210962 11.463014 38.911962 -35.577068 57.589640 29.588780 19.306134 -59.051479 0.000000 0.000000 0.000000 -4.085631 -6.955001 40.215207 5.621480 -3.358943 -23.861448 20.981227 -6.357210 6.970679 7.699185 -2.050950 3.004376 26.606908 4.287136 6.007910 0.000000 0.000000 0.000000 -2.873181 -4.171233 -3.204917 17.177101 -37.564738 43.460903 -61.498591 -51.155109 -58.186074 96.368422 -52.901330 -38.454096 -130.700203 36.739981 -0.000001 0.000000 0.000000 0.000000 0.000000 0.000000 0.000000 16.135828 -14.305076 1.950453 22.852250 7.815452 21.424068 -10.315314 87.549307 0.705783 -16.677582 32.482946 -0.263083 -18.714346 31.617880 0.000000 0.000000 0.000000 0.000000 0.000000 0.000000 0.000000 
-2.135456 16.705816 24.682125 -7.649608 10.565417 -10.594410 3.556309 -4.873275 1.827975 -15.487941 -11.304431 12.015475 0.155261 -24.191997 -26.497485 4.843194 -24.132109 14.975361 0.000000 0.000000 0.000000 -6.623564 22.786749 -53.666508 15.793922 -20.748616 11.911983 37.595668 -36.437350 58.003216 28.834260 18.757667 -57.963103 0.000000 0.000000 0.000000 -5.360961 -5.772457 39.411446 7.571176 -2.563819 -26.255524 19.373022 -7.320888 12.498727 8.930392 -7.277370 9.453505 30.782266 5.448333 6.761512 0.000000 0.000000 0.000000 -6.688665 -3.216081 -2.916311 11.649089 -50.889365 41.376741 -68.576800 -23.513789 -127.297676 40.664371 68.094305 -119.884029 54.833015 83.599366 -0.000002 0.000000 0.000000 0.000000 0.000000 0.000000 0.000000 16.939284 -10.769487 3.058822 23.863372 8.105450 20.526360 -10.377976 87.055289 0.782027 -16.428670 32.127692 -0.208915 -18.393379 31.301072 0.000000 0.000000 0.000000 0.000000 0.000000 0.000000 0.000000 
-2.131406 16.736600 24.849428 -5.684062 9.223765 -9.983863 2.719599 -4.753685 1.954973 -16.807103 -11.426078 12.452868 0.122050 -23.679678 -26.190570 5.054127 -24.381517 13.946001 0.000000 0.000000 0.000000 -7.225415 23.611442 -53.769268 16.000728 -20.375097 12.546731 36.082416 -36.978004 58.896991 28.051251 18.214972 -56.976141 0.000000 0.000000 0.000000 -1.969820 -9.000490 40.420396 4.634543 -3.955297 -29.979854 11.392747 -8.869074 -0.440262 8.823618 7.403605 5.762549 29.145549 11.343345 3.679101 0.000000 0.000000 0.000000 -11.746693 -13.266100 -24.213598 16.188349 -32.187265 22.110781 -49.878580 -4.678659 165.047257 5.065888 84.722588 -59.377315 -143.937957 76.430592 179.999999 0.000000 0.000000 0.000000 0.000000 0.000000 0.000000 15.679255 -13.474808 9.467830 26.871349 4.074475 25.538623 -10.529484 87.812454 1.141046 -16.499890 32.817432 0.009632 -18.346473 32.028487 0.000000 0.000000 0.000000 0.000000 0.000000 0.000000 0.000000 
-2.125129 16.767074 25.012279 -5.145888 8.535085 -9.735749 2.790673 -5.066519 1.953067 -17.625673 -11.884864 13.097578 0.228715 -22.897275 -25.560627 5.413674 -24.743983 12.316526 0.000000 0.000000 0.000000 -7.376741 24.005572 -53.889921 16.332821 -20.359100 13.006664 34.588246 -37.708033 59.530942 27.204580 17.675430 -55.900963 0.000000 0.000000 0.000000 -1.377091 -9.926744 40.688042 3.381023 -4.879443 -29.940643 9.274593 -9.157454 -3.641060 10.696460 15.503702 4.013023 28.473938 16.032650 2.290129 0.000000 0.000000 0.000000 -15.508250 -17.679610 -31.140150 6.432194 -16.974513 8.609527 -63.771229 -3.471628 135.109247 158.190311 71.959765 146.515257 -136.426490 71.132100 179.999999 0.000000 0.000000 0.000000 0.000000 0.000000 0.000000 16.234207 -13.559159 10.756567 27.071525 3.579633 26.652224 -10.353358 87.907497 1.177438 -16.555524 33.155125 0.030267 -18.412344 32.359843 0.000000 0.000000 0.000000 0.000000 0.000000 0.000000 0.000000 
-2.116988 16.797158 25.170916 -5.657249 7.993785 -9.734168 3.571571 -5.517842 1.808274 -18.091543 -12.605810 13.736944 0.441667 -21.703196 -24.633948 5.912283 -25.067595 10.278086 0.000000 0.000000 0.000000 -7.267101 24.396130 -54.231234 16.684573 -20.571739 13.363726 33.091189 -38.605399 60.036013 26.332607 17.104019 -54.754952 0.000000 0.000000 0.000000 -2.962869 -9.994190 40.705017 7.639668 -4.727087 -30.518466 11.617153 -8.177410 -12.763426 7.743952 8.974482 16.655099 31.595969 16.196926 4.292092 0.000000 0.000000 0.000000 -3.356119 -17.292324 -50.792114 -1.979503 -7.797028 -20.937606 -38.857747 37.287006 -43.810500 131.837060 37.623809 35.988396 107.709890 -70.251660 -180.000000 0.000000 0.000000 0.000000 0.000000 0.000000 0.000000 10.863602 -11.658902 17.371638 28.123856 -0.409104 29.953165 -10.442580 88.118515 1.413167 -16.081948 32.553228 0.182092 -17.778362 31.838636 0.000000 0.000000 0.000000 0.000000 0.000000 0.000000 0.000000 
